<svg width="18" height="21" viewBox="0 0 18 21" fill="none" xmlns="http://www.w3.org/2000/svg">
<path d="M14.3169 10.7456C14.3081 9.1123 15.037 7.87955 16.5122 6.97167C15.6868 5.77452 14.4399 5.11586 12.7934 4.9868C11.2348 4.86219 9.53127 5.90803 8.90782 5.90803C8.24925 5.90803 6.73891 5.03131 5.55347 5.03131C3.10357 5.07136 0.5 7.01173 0.5 10.9592C0.5 12.1252 0.710744 13.3298 1.13223 14.5729C1.69422 16.2062 3.72263 20.2115 5.83886 20.1448C6.94527 20.1181 7.72678 19.3482 9.16686 19.3482C10.563 19.3482 11.2875 20.1448 12.5212 20.1448C14.655 20.1136 16.4902 16.4732 17.0259 14.8355C14.1633 13.4692 14.3169 10.8302 14.3169 10.7456ZM11.8319 3.43807C13.0305 1.99615 12.9207 0.683288 12.8856 0.211548C11.8275 0.273853 10.6026 0.94141 9.90447 1.76473C9.13613 2.6459 8.68391 3.73625 8.7805 4.96455C9.92642 5.05356 10.9714 4.45721 11.8319 3.43807Z" fill="black"/>
</svg>
