<svg width="62" height="58" viewBox="0 0 62 58" fill="none" xmlns="http://www.w3.org/2000/svg">
<g filter="url(#filter0_d_78_270)">
<path d="M36.9999 21V25L38.3799 26.38C38.6768 26.6765 38.879 27.0544 38.9609 27.4659C39.0429 27.8774 39.0009 28.3039 38.8403 28.6916C38.6797 29.0792 38.4077 29.4104 38.0587 29.6433C37.7097 29.8762 37.2995 30.0004 36.8799 30H25.1199C24.7003 30.0004 24.2901 29.8762 23.9411 29.6433C23.5922 29.4104 23.3201 29.0792 23.1595 28.6916C22.9989 28.3039 22.9569 27.8774 23.0389 27.4659C23.1208 27.0544 23.3231 26.6765 23.6199 26.38L24.9999 25V21C24.9999 19.4087 25.6321 17.8826 26.7573 16.7574C27.8825 15.6322 29.4086 15 30.9999 15C32.0059 14.9981 32.9963 15.2491 33.8799 15.73" fill="#D9D9D9" fill-opacity="0.42"/>
<path d="M36.9999 21V25L38.3799 26.38C38.6768 26.6765 38.879 27.0544 38.9609 27.4659C39.0429 27.8774 39.0009 28.3039 38.8403 28.6916C38.6797 29.0792 38.4077 29.4104 38.0587 29.6433C37.7097 29.8762 37.2995 30.0004 36.8799 30H25.1199C24.7003 30.0004 24.2901 29.8762 23.9411 29.6433C23.5922 29.4104 23.3201 29.0792 23.1595 28.6916C22.9989 28.3039 22.9569 27.8774 23.0389 27.4659C23.1208 27.0544 23.3231 26.6765 23.6199 26.38L24.9999 25V21C24.9999 19.4087 25.6321 17.8826 26.7573 16.7574C27.8825 15.6322 29.4086 15 30.9999 15C32.0059 14.9981 32.9963 15.2491 33.8799 15.73" stroke="#7414EE" stroke-linecap="round" stroke-linejoin="round"/>
<path d="M34 30H28C28 30.7956 28.3161 31.5587 28.8787 32.1213C29.4413 32.6839 30.2044 33 31 33C31.7956 33 32.5587 32.6839 33.1213 32.1213C33.6839 31.5587 34 30.7956 34 30ZM33 18C33 18.7956 33.3161 19.5587 33.8787 20.1213C34.4413 20.6839 35.2044 21 36 21C36.7956 21 37.5587 20.6839 38.1213 20.1213C38.6839 19.5587 39 18.7956 39 18C39 17.2044 38.6839 16.4413 38.1213 15.8787C37.5587 15.3161 36.7956 15 36 15C35.2044 15 34.4413 15.3161 33.8787 15.8787C33.3161 16.4413 33 17.2044 33 18Z" fill="#D9D9D9" fill-opacity="0.42" stroke="#7414EE" stroke-linecap="round" stroke-linejoin="round"/>
<rect x="9.5" y="4.5" width="43" height="39" rx="5.5" stroke="#7414EE" stroke-opacity="0.21" shape-rendering="crispEdges"/>
</g>
<defs>
<filter id="filter0_d_78_270" x="0.416091" y="0.184929" width="61.1678" height="57.1678" filterUnits="userSpaceOnUse" color-interpolation-filters="sRGB">
<feFlood flood-opacity="0" result="BackgroundImageFix"/>
<feColorMatrix in="SourceAlpha" type="matrix" values="0 0 0 0 0 0 0 0 0 0 0 0 0 0 0 0 0 0 127 0" result="hardAlpha"/>
<feOffset dy="4.76884"/>
<feGaussianBlur stdDeviation="4.29195"/>
<feComposite in2="hardAlpha" operator="out"/>
<feColorMatrix type="matrix" values="0 0 0 0 1 0 0 0 0 0.216667 0 0 0 0 0.250239 0 0 0 0.2 0"/>
<feBlend mode="normal" in2="BackgroundImageFix" result="effect1_dropShadow_78_270"/>
<feBlend mode="normal" in="SourceGraphic" in2="effect1_dropShadow_78_270" result="shape"/>
</filter>
</defs>
</svg>
