<svg xmlns="http://www.w3.org/2000/svg" width="24" height="24" viewBox="0 0 24 24" fill="none">
<path d="M20.25 20C20.25 20.1381 20.1381 20.25 20 20.25H14C13.8619 20.25 13.75 20.1381 13.75 20V16C13.75 15.8619 13.8619 15.75 14 15.75H20C20.1381 15.75 20.25 15.8619 20.25 16V20ZM10.25 20C10.25 20.1381 10.1381 20.25 10 20.25H4C3.86193 20.25 3.75 20.1381 3.75 20V12C3.75 11.8619 3.86193 11.75 4 11.75H10C10.1381 11.75 10.25 11.8619 10.25 12V20ZM20.25 12C20.25 12.1381 20.1381 12.25 20 12.25H14C13.8619 12.25 13.75 12.1381 13.75 12V4C13.75 3.86193 13.8619 3.75 14 3.75H20C20.1381 3.75 20.25 3.86193 20.25 4V12ZM10.25 8C10.25 8.13807 10.1381 8.25 10 8.25H4C3.86193 8.25 3.75 8.13807 3.75 8V4C3.75 3.86193 3.86193 3.75 4 3.75H10C10.1381 3.75 10.25 3.86193 10.25 4V8Z" fill="#FAFAFA" stroke="#FAFAFA" stroke-width="1.5"/>
</svg>