<svg width="24" height="24" viewBox="0 0 24 24" fill="none" xmlns="http://www.w3.org/2000/svg">
<path d="M19.8039 19.4797C19.8039 19.585 19.7184 19.6704 19.6131 19.6704H13.8905C13.7851 19.6704 13.6997 19.585 13.6997 19.4797V15.6646C13.6997 15.5593 13.7851 15.4739 13.8905 15.4739H19.6131C19.7184 15.4739 19.8039 15.5593 19.8039 15.6646V19.4797ZM10.2662 19.4797C10.2662 19.585 10.1808 19.6704 10.0754 19.6704H4.35282C4.24747 19.6704 4.16206 19.585 4.16206 19.4797V11.8495C4.16206 11.7442 4.24746 11.6588 4.35282 11.6588H10.0754C10.1808 11.6588 10.2662 11.7442 10.2662 11.8495V19.4797ZM19.8039 11.8495C19.8039 11.9549 19.7184 12.0403 19.6131 12.0403H13.8905C13.7851 12.0403 13.6997 11.9549 13.6997 11.8495V4.21939C13.6997 4.11404 13.7851 4.02864 13.8905 4.02864H19.6131C19.7184 4.02864 19.8039 4.11404 19.8039 4.21939V11.8495ZM10.2662 8.03446C10.2662 8.13981 10.1808 8.22522 10.0754 8.22522H4.35282C4.24747 8.22522 4.16206 8.13981 4.16206 8.03446V4.21939C4.16206 4.11404 4.24746 4.02864 4.35282 4.02864H10.0754C10.1808 4.02864 10.2662 4.11404 10.2662 4.21939V8.03446Z" stroke="#939393" stroke-width="1.52603"/>
</svg>
