<svg width="52" height="52" viewBox="0 0 52 52" fill="none" xmlns="http://www.w3.org/2000/svg">
<rect x="0.5" y="0.5" width="51" height="51" rx="25.5" stroke="#E3E8E7"/>
<path d="M26 23.375C26.5192 23.375 27.0267 23.529 27.4584 23.8174C27.8901 24.1058 28.2265 24.5158 28.4252 24.9955C28.6239 25.4751 28.6758 26.0029 28.5746 26.5121C28.4733 27.0213 28.2233 27.489 27.8562 27.8562C27.489 28.2233 27.0213 28.4733 26.5121 28.5746C26.0029 28.6758 25.4751 28.6239 24.9955 28.4252C24.5158 28.2265 24.1058 27.89 23.8174 27.4584C23.529 27.0267 23.375 26.5192 23.375 26C23.375 25.3038 23.6516 24.6361 24.1438 24.1438C24.6361 23.6516 25.3038 23.375 26 23.375ZM21.125 26C21.125 25.4808 20.971 24.9733 20.6826 24.5416C20.3942 24.1099 19.9842 23.7735 19.5045 23.5748C19.0249 23.3761 18.4971 23.3242 17.9879 23.4254C17.4787 23.5267 17.011 23.7767 16.6438 24.1438C16.2767 24.511 16.0267 24.9787 15.9254 25.4879C15.8242 25.9971 15.8761 26.5249 16.0748 27.0045C16.2735 27.4842 16.61 27.8942 17.0416 28.1826C17.4733 28.471 17.9808 28.625 18.5 28.625C19.1962 28.625 19.8639 28.3484 20.3562 27.8562C20.8484 27.3639 21.125 26.6962 21.125 26ZM30.875 26C30.875 26.5192 31.029 27.0267 31.3174 27.4584C31.6058 27.89 32.0158 28.2265 32.4955 28.4252C32.9751 28.6239 33.5029 28.6758 34.0121 28.5746C34.5213 28.4733 34.989 28.2233 35.3562 27.8562C35.7233 27.489 35.9733 27.0213 36.0746 26.5121C36.1758 26.0029 36.1239 25.4751 35.9252 24.9955C35.7265 24.5158 35.3901 24.1058 34.9584 23.8174C34.5267 23.529 34.0192 23.375 33.5 23.375C32.8038 23.375 32.1361 23.6516 31.6438 24.1438C31.1516 24.6361 30.875 25.3038 30.875 26Z" fill="#ACB9B8"/>
</svg>
