<svg width="20" height="20" viewBox="0 0 20 20" fill="none" xmlns="http://www.w3.org/2000/svg">
<path d="M16.3799 9.55805C16.438 9.6161 16.4841 9.68503 16.5156 9.7609C16.547 9.83678 16.5632 9.91811 16.5632 10.0002C16.5632 10.0824 16.547 10.1637 16.5156 10.2396C16.4841 10.3155 16.438 10.3844 16.3799 10.4424L9.96974 16.8487C9.14912 17.6692 8.03617 18.1301 6.87571 18.13C5.71526 18.13 4.60236 17.6689 3.78185 16.8483C2.96133 16.0277 2.50042 14.9147 2.50049 13.7543C2.50056 12.5938 2.96162 11.4809 3.78224 10.6604L11.5369 2.79165C12.1228 2.20517 12.9176 1.87544 13.7466 1.875C14.5756 1.87456 15.3708 2.20345 15.9572 2.78931C16.5437 3.37516 16.8734 4.17001 16.8739 4.99898C16.8743 5.82795 16.5454 6.62314 15.9596 7.20962L8.20333 15.0784C7.85109 15.4306 7.37335 15.6285 6.87521 15.6285C6.37706 15.6285 5.89932 15.4306 5.54708 15.0784C5.19484 14.7261 4.99695 14.2484 4.99695 13.7502C4.99695 13.2521 5.19484 12.7744 5.54708 12.4221L12.0549 5.81118C12.1119 5.75037 12.1805 5.70157 12.2566 5.66766C12.3328 5.63376 12.415 5.61543 12.4983 5.61375C12.5816 5.61207 12.6645 5.62708 12.7419 5.6579C12.8194 5.68871 12.8899 5.73471 12.9493 5.79318C13.0087 5.85165 13.0558 5.92141 13.0879 5.99836C13.1199 6.07531 13.1362 6.1579 13.1359 6.24125C13.1355 6.32461 13.1185 6.40705 13.0858 6.48373C13.0531 6.56041 13.0054 6.62977 12.9455 6.68774L6.43693 13.3057C6.37865 13.3635 6.33233 13.4322 6.30062 13.508C6.26891 13.5837 6.25241 13.6649 6.25209 13.747C6.25176 13.8291 6.26761 13.9104 6.29872 13.9864C6.32983 14.0623 6.3756 14.1314 6.43341 14.1897C6.49122 14.248 6.55995 14.2943 6.63566 14.326C6.71137 14.3577 6.79259 14.3742 6.87467 14.3745C6.95676 14.3749 7.03811 14.359 7.11407 14.3279C7.19003 14.2968 7.25912 14.251 7.31739 14.1932L15.0729 6.32837C15.4251 5.97685 15.6233 5.49981 15.6238 5.00218C15.6243 4.50455 15.4271 4.02709 15.0756 3.67485C14.7241 3.32261 14.247 3.12444 13.7494 3.12392C13.2518 3.12341 12.7743 3.3206 12.4221 3.67212L4.66896 11.5377C4.37851 11.8277 4.14802 12.1721 3.99066 12.5511C3.83329 12.9302 3.75213 13.3365 3.7518 13.747C3.75148 14.1574 3.83199 14.5639 3.98875 14.9432C4.14552 15.3225 4.37546 15.6672 4.66544 15.9577C4.95543 16.2481 5.29978 16.4786 5.67884 16.636C6.0579 16.7933 6.46425 16.8745 6.87467 16.8748C7.2851 16.8751 7.69158 16.7946 8.07089 16.6379C8.4502 16.4811 8.79492 16.2512 9.08536 15.9612L15.4963 9.55493C15.6139 9.43822 15.7731 9.37299 15.9387 9.37358C16.1044 9.37416 16.2631 9.44052 16.3799 9.55805Z" fill="#939393"/>
</svg>
