<svg width="19" height="20" viewBox="0 0 19 20" fill="none" xmlns="http://www.w3.org/2000/svg">
<g clip-path="url(#clip0_237_443)">
<path d="M18.1739 9.92201C18.1739 9.14314 18.112 8.57477 17.9782 7.98535H9.2724V11.5008H14.3825C14.2795 12.3744 13.7232 13.6901 12.4868 14.5742L12.4695 14.6919L15.2221 16.8704L15.4128 16.8898C17.1642 15.2373 18.1739 12.806 18.1739 9.92201Z" fill="#4285F4"/>
<path d="M9.27241 19.1844C11.7759 19.1844 13.8776 18.3423 15.4128 16.8899L12.4868 14.5742C11.7038 15.1321 10.6529 15.5215 9.27241 15.5215C6.82039 15.5215 4.73927 13.8691 3.99741 11.5851L3.88867 11.5945L1.02647 13.8575L0.989044 13.9638C2.51382 17.0582 5.64584 19.1844 9.27241 19.1844Z" fill="#34A853"/>
<path d="M3.9974 11.5851C3.80165 10.9957 3.68836 10.3641 3.68836 9.71159C3.68836 9.05897 3.80165 8.42747 3.9871 7.83806L3.98191 7.71253L1.08385 5.41321L0.989033 5.45928C0.360597 6.7434 0 8.18541 0 9.71159C0 11.2378 0.360597 12.6797 0.989033 13.9638L3.9974 11.5851Z" fill="#FBBC05"/>
<path d="M9.27242 3.90146C11.0135 3.90146 12.188 4.66981 12.8577 5.3119L15.4746 2.70159C13.8674 1.17541 11.7759 0.238647 9.27242 0.238647C5.64584 0.238647 2.51382 2.36476 0.989044 5.4592L3.98711 7.83798C4.73927 5.55397 6.8204 3.90146 9.27242 3.90146Z" fill="#EB4335"/>
</g>
<defs>
<clipPath id="clip0_237_443">
<rect y="0.211548" width="18.1739" height="19" rx="9.08696" fill="white"/>
</clipPath>
</defs>
</svg>
