<svg width="24" height="24" viewBox="0 0 24 24" fill="none" xmlns="http://www.w3.org/2000/svg">
<path d="M3.39905 17.5792V11.8566C3.39905 9.58002 4.30342 7.39667 5.91322 5.78687C7.52301 4.17708 9.70636 3.27271 11.983 3.27271C14.2596 3.27271 16.4429 4.17708 18.0527 5.78687C19.6625 7.39667 20.5669 9.58002 20.5669 11.8566V17.5792" stroke="#939393" stroke-width="1.90754" stroke-linecap="round" stroke-linejoin="round"/>
<path d="M20.5669 18.533C20.5669 19.0389 20.3659 19.5241 20.0082 19.8818C19.6504 20.2396 19.1652 20.4405 18.6593 20.4405H17.7056C17.1997 20.4405 16.7145 20.2396 16.3567 19.8818C15.999 19.5241 15.798 19.0389 15.798 18.533V15.6717C15.798 15.1658 15.999 14.6806 16.3567 14.3229C16.7145 13.9651 17.1997 13.7642 17.7056 13.7642H20.5669V18.533ZM3.39905 18.533C3.39905 19.0389 3.60002 19.5241 3.95775 19.8818C4.31548 20.2396 4.80067 20.4405 5.30658 20.4405H6.26035C6.76626 20.4405 7.25145 20.2396 7.60918 19.8818C7.96691 19.5241 8.16789 19.0389 8.16789 18.533V15.6717C8.16789 15.1658 7.96691 14.6806 7.60918 14.3229C7.25145 13.9651 6.76626 13.7642 6.26035 13.7642H3.39905V18.533Z" stroke="#939393" stroke-width="1.90754" stroke-linecap="round" stroke-linejoin="round"/>
</svg>
