<svg width="24" height="24" viewBox="0 0 24 24" fill="none" xmlns="http://www.w3.org/2000/svg">
<path d="M11.983 20.9367C11.3678 20.3912 10.6725 19.8237 9.93718 19.2199H9.92764C7.33816 17.1026 4.40342 14.7067 3.10725 11.8359C2.68141 10.9219 2.45573 9.92749 2.44532 8.91924C2.44248 7.53579 2.99735 6.20957 3.98453 5.24034C4.97172 4.2711 6.30789 3.74066 7.69106 3.76889C8.8171 3.77067 9.9189 4.09611 10.8652 4.70645C11.281 4.97634 11.6572 5.3028 11.983 5.67643C12.3106 5.30426 12.6869 4.97799 13.1018 4.70645C14.0477 4.09599 15.1492 3.77053 16.275 3.76889C17.6581 3.74066 18.9943 4.2711 19.9815 5.24034C20.9687 6.20957 21.5235 7.53579 21.5207 8.91924C21.511 9.9291 21.2853 10.9252 20.8588 11.8406C19.5626 14.7115 16.6288 17.1064 14.0393 19.2199L14.0298 19.2276C13.2935 19.8275 12.5991 20.395 11.984 20.9443L11.983 20.9367ZM7.69106 5.67643C6.80263 5.66531 5.94573 6.00533 5.30664 6.62257C4.69087 7.22741 4.34672 8.05612 4.35279 8.91924C4.36367 9.65412 4.53011 10.3784 4.8412 11.0442C5.45305 12.2829 6.27863 13.4039 7.27998 14.3557C8.22517 15.3095 9.31246 16.2327 10.2529 17.0091C10.5133 17.2237 10.7784 17.4402 11.0436 17.6567L11.2105 17.7931C11.4651 18.001 11.7284 18.2166 11.983 18.4283L11.9954 18.4169L12.0011 18.4121H12.0069L12.0154 18.4054H12.0202H12.025L12.0421 18.3911L12.0812 18.3596L12.0879 18.3539L12.0984 18.3463H12.1041L12.1127 18.3386L12.746 17.8188L12.912 17.6825C13.18 17.464 13.4451 17.2475 13.7055 17.0329C14.6459 16.2566 15.7342 15.3343 16.6794 14.3757C17.6809 13.4244 18.5065 12.3037 19.1181 11.0652C19.4349 10.3936 19.6037 9.66175 19.6132 8.91924C19.6171 8.05879 19.2732 7.23326 18.6594 6.6302C18.0215 6.01017 17.1645 5.66735 16.275 5.67643C15.1895 5.66721 14.1518 6.12219 13.4232 6.92682L11.983 8.58638L10.5428 6.92682C9.8142 6.12219 8.77652 5.66721 7.69106 5.67643Z" fill="#939393"/>
</svg>
