<svg width="20" height="20" viewBox="0 0 20 20" fill="none" xmlns="http://www.w3.org/2000/svg">
<g clip-path="url(#clip0_314_103)">
<path d="M6.771 3.7009C6.771 2.75232 7.14782 1.84259 7.81857 1.17184C8.48931 0.50109 9.39904 0.124268 10.3476 0.124268C11.2962 0.124268 12.2059 0.50109 12.8767 1.17184C13.5474 1.84259 13.9243 2.75232 13.9243 3.7009V9.66195C13.9243 10.6105 13.5474 11.5203 12.8767 12.191C12.2059 12.8618 11.2962 13.2386 10.3476 13.2386C9.39904 13.2386 8.48931 12.8618 7.81857 12.191C7.14782 11.5203 6.771 10.6105 6.771 9.66195V3.7009Z" fill="#272727"/>
<path d="M4.98258 7.87378C5.14068 7.87378 5.2923 7.93658 5.40409 8.04837C5.51588 8.16017 5.57868 8.31179 5.57868 8.46988V9.66209C5.57868 10.9269 6.08111 12.1398 6.97544 13.0342C7.86978 13.9285 9.08275 14.4309 10.3475 14.4309C11.6123 14.4309 12.8253 13.9285 13.7196 13.0342C14.6139 12.1398 15.1164 10.9269 15.1164 9.66209V8.46988C15.1164 8.31179 15.1792 8.16017 15.291 8.04837C15.4027 7.93658 15.5544 7.87378 15.7125 7.87378C15.8706 7.87378 16.0222 7.93658 16.134 8.04837C16.2458 8.16017 16.3086 8.31179 16.3086 8.46988V9.66209C16.3086 11.1399 15.7597 12.565 14.7684 13.6609C13.7771 14.7569 12.414 15.4456 10.9436 15.5933V18.0076H14.5203C14.6784 18.0076 14.83 18.0704 14.9418 18.1822C15.0536 18.2939 15.1164 18.4456 15.1164 18.6037C15.1164 18.7618 15.0536 18.9134 14.9418 19.0252C14.83 19.137 14.6784 19.1998 14.5203 19.1998H6.17479C6.01669 19.1998 5.86507 19.137 5.75328 19.0252C5.64149 18.9134 5.57868 18.7618 5.57868 18.6037C5.57868 18.4456 5.64149 18.2939 5.75328 18.1822C5.86507 18.0704 6.01669 18.0076 6.17479 18.0076H9.75142V15.5933C8.28105 15.4456 6.91798 14.7569 5.92667 13.6609C4.93535 12.565 4.38646 11.1399 4.38647 9.66209V8.46988C4.38647 8.31179 4.44928 8.16017 4.56107 8.04837C4.67286 7.93658 4.82448 7.87378 4.98258 7.87378Z" fill="#272727"/>
</g>
<defs>
<clipPath id="clip0_314_103">
<rect width="19.0754" height="19.0754" fill="white" transform="translate(0.810303 0.124268)"/>
</clipPath>
</defs>
</svg>
