<svg width="52" height="52" viewBox="0 0 52 52" fill="none" xmlns="http://www.w3.org/2000/svg">
<rect x="0.5" y="0.5" width="51" height="51" rx="25.5" stroke="#E3E8E7"/>
<path d="M28.2753 17.556C28.3008 17.4608 28.3447 17.3716 28.4047 17.2934C28.4647 17.2152 28.5394 17.1496 28.6248 17.1003C28.7101 17.051 28.8043 17.0191 28.902 17.0062C28.9996 16.9933 29.0989 16.9999 29.1941 17.0254C30.5844 17.3881 31.853 18.115 32.869 19.131C33.8851 20.1471 34.6119 21.4156 34.9747 22.806C35.0002 22.9012 35.0067 23.0004 34.9939 23.0981C34.981 23.1958 34.949 23.29 34.8997 23.3753C34.8505 23.4606 34.7849 23.5354 34.7067 23.5954C34.6285 23.6553 34.5393 23.6993 34.4441 23.7247C34.3807 23.7414 34.3155 23.7499 34.25 23.7501C34.0849 23.7501 33.9243 23.6956 33.7933 23.5951C33.6622 23.4946 33.5681 23.3536 33.5253 23.1941C33.2296 22.0589 32.6365 21.0232 31.8071 20.1936C30.9777 19.364 29.942 18.7707 28.8069 18.4747C28.7116 18.4494 28.6223 18.4055 28.544 18.3456C28.4657 18.2857 28.4 18.2109 28.3506 18.1256C28.3013 18.0402 28.2692 17.946 28.2563 17.8483C28.2433 17.7505 28.2498 17.6512 28.2753 17.556ZM28.0569 21.4747C29.3497 21.8197 30.1803 22.6513 30.5253 23.9441C30.5681 24.1036 30.6622 24.2446 30.7933 24.3451C30.9243 24.4456 31.0849 24.5001 31.25 24.5001C31.3155 24.4999 31.3807 24.4914 31.4441 24.4747C31.5393 24.4493 31.6285 24.4053 31.7067 24.3454C31.7849 24.2854 31.8505 24.2106 31.8997 24.1253C31.949 24.04 31.981 23.9458 31.9939 23.8481C32.0067 23.7504 32.0002 23.6512 31.9747 23.556C31.4947 21.7597 30.2403 20.5054 28.4441 20.0254C28.3489 19.9999 28.2497 19.9935 28.152 20.0064C28.0544 20.0194 27.9602 20.0514 27.8749 20.1007C27.7897 20.15 27.7149 20.2157 27.655 20.2939C27.5951 20.3721 27.5512 20.4613 27.5258 20.5565C27.5004 20.6516 27.4939 20.7509 27.5069 20.8485C27.5198 20.9462 27.5518 21.0403 27.6012 21.1256C27.6505 21.2109 27.7161 21.2856 27.7943 21.3455C27.8725 21.4054 27.9617 21.4493 28.0569 21.4747ZM34.8472 28.8557L30.4306 26.8766L30.4184 26.871C30.1892 26.7729 29.939 26.7336 29.6907 26.7565C29.4424 26.7794 29.2037 26.8639 28.9963 27.0022C28.9718 27.0184 28.9484 27.0359 28.9259 27.0547L26.6441 29.0001C25.1984 28.2979 23.7059 26.8166 23.0038 25.3897L24.9519 23.0732C24.9706 23.0497 24.9884 23.0263 25.0053 23.001C25.1407 22.7941 25.2229 22.5569 25.2445 22.3106C25.2661 22.0643 25.2264 21.8164 25.1291 21.5891V21.5779L23.1444 17.1538C23.0157 16.8569 22.7944 16.6095 22.5136 16.4487C22.2328 16.2878 21.9075 16.2221 21.5863 16.2613C20.3159 16.4285 19.1499 17.0523 18.3059 18.0164C17.4619 18.9805 16.9977 20.2188 17 21.5001C17 28.9438 23.0563 35.0001 30.5 35.0001C31.7813 35.0023 33.0196 34.5382 33.9837 33.6942C34.9477 32.8502 35.5716 31.6841 35.7388 30.4138C35.7781 30.0927 35.7125 29.7674 35.5518 29.4866C35.3911 29.2058 35.144 28.9845 34.8472 28.8557Z" fill="#7414EE"/>
</svg>
