<svg width="24" height="24" viewBox="0 0 24 24" fill="none" xmlns="http://www.w3.org/2000/svg">
<path d="M14.026 8.03521L5.62605 16.2852C5.48577 16.4232 5.29688 16.5005 5.10011 16.5005C4.90334 16.5005 4.71445 16.4232 4.57417 16.2852L0.974175 12.7499C0.903938 12.6808 0.847993 12.5986 0.809533 12.5079C0.771074 12.4172 0.750853 12.3199 0.750026 12.2214C0.749199 12.1229 0.767782 12.0251 0.804713 11.9338C0.841644 11.8425 0.896201 11.7594 0.965268 11.6891C1.03434 11.6189 1.11656 11.5629 1.20725 11.5245C1.29794 11.486 1.39531 11.4658 1.49381 11.465C1.59232 11.4641 1.69002 11.4827 1.78134 11.5197C1.87266 11.5566 1.95581 11.6111 2.02605 11.6802L5.10011 14.699L12.9751 6.96459C13.1171 6.8251 13.3087 6.74772 13.5077 6.74948C13.6062 6.75035 13.7036 6.77062 13.7943 6.80914C13.8851 6.84766 13.9673 6.90366 14.0364 6.97396C14.1054 7.04426 14.16 7.12747 14.1969 7.21885C14.2338 7.31023 14.2523 7.40798 14.2515 7.50653C14.2506 7.60507 14.2303 7.70248 14.1918 7.7932C14.1533 7.88391 14.0973 7.96614 14.027 8.03521H14.026ZM23.0354 6.97396C22.9664 6.90361 22.8842 6.84756 22.7934 6.80901C22.7027 6.77046 22.6053 6.75017 22.5067 6.7493C22.4082 6.74843 22.3104 6.76699 22.219 6.80393C22.1276 6.84087 22.0444 6.89547 21.9742 6.96459L14.0992 14.699L12.3339 12.9646C12.1919 12.8252 12.0004 12.748 11.8014 12.7498C11.6025 12.7517 11.4124 12.8325 11.2731 12.9744C11.1337 13.1164 11.0565 13.3079 11.0583 13.5069C11.0602 13.7058 11.141 13.8958 11.2829 14.0352L13.5732 16.2852C13.7135 16.4232 13.9024 16.5005 14.0992 16.5005C14.2959 16.5005 14.4848 16.4232 14.6251 16.2852L23.0251 8.03521C23.0955 7.96624 23.1516 7.88406 23.1903 7.79338C23.2289 7.70269 23.2493 7.60529 23.2502 7.50672C23.2512 7.40816 23.2327 7.31038 23.1959 7.21896C23.159 7.12754 23.1045 7.04429 23.0354 6.97396Z" fill="#7414EE"/>
</svg>
