<svg width="20" height="20" viewBox="0 0 20 20" fill="none" xmlns="http://www.w3.org/2000/svg">
<path d="M18.1249 9.99123C18.1255 10.2139 18.0665 10.4328 17.9542 10.6251C17.8418 10.8173 17.6801 10.9761 17.4858 11.085L4.36787 18.5858C4.17939 18.6926 3.96656 18.7491 3.7499 18.7498C3.55009 18.7494 3.35329 18.7011 3.176 18.609C2.9987 18.5168 2.84608 18.3835 2.73093 18.2203C2.61577 18.057 2.54143 17.8685 2.51415 17.6705C2.48687 17.4726 2.50743 17.271 2.57412 17.0826L4.71083 10.8365C4.73189 10.7747 4.77177 10.7211 4.82487 10.6831C4.87798 10.6452 4.94164 10.6248 5.00693 10.6248H10.6249C10.7106 10.625 10.7954 10.6076 10.874 10.5736C10.9527 10.5397 11.0235 10.4899 11.0821 10.4274C11.1408 10.3649 11.1859 10.291 11.2148 10.2103C11.2436 10.1297 11.2556 10.0439 11.2499 9.95842C11.2357 9.7977 11.1614 9.64828 11.0417 9.54006C10.922 9.43184 10.7659 9.37282 10.6046 9.37483H5.0124C4.94721 9.37494 4.88361 9.35467 4.83052 9.31684C4.77743 9.27902 4.73749 9.22554 4.7163 9.16389L2.57255 2.91389C2.48907 2.6744 2.48041 2.41518 2.54774 2.17065C2.61506 1.92612 2.75517 1.70786 2.94947 1.54484C3.14376 1.38183 3.38305 1.28177 3.63556 1.25796C3.88806 1.23415 4.14183 1.28772 4.36318 1.41154L17.4882 8.90295C17.6812 9.01165 17.8419 9.1697 17.9538 9.36093C18.0657 9.55216 18.1247 9.76968 18.1249 9.99123Z" fill="#7414EE"/>
</svg>
