<svg width="52" height="52" viewBox="0 0 52 52" fill="none" xmlns="http://www.w3.org/2000/svg">
<rect x="0.5" y="0.5" width="51" height="51" rx="25.5" stroke="#E3E8E7"/>
<g clip-path="url(#clip0_179_1675)">
<path d="M32 20.75V31.25C32 31.6478 31.842 32.0294 31.5607 32.3107C31.2794 32.592 30.8978 32.75 30.5 32.75H17C16.6022 32.75 16.2206 32.592 15.9393 32.3107C15.658 32.0294 15.5 31.6478 15.5 31.25V20.75C15.5 20.3522 15.658 19.9706 15.9393 19.6893C16.2206 19.408 16.6022 19.25 17 19.25H30.5C30.8978 19.25 31.2794 19.408 31.5607 19.6893C31.842 19.9706 32 20.3522 32 20.75ZM37.4375 20.7734C37.3317 20.7475 37.2216 20.7444 37.1145 20.7641C37.0073 20.7838 36.9056 20.826 36.8159 20.8878L33.6669 22.9869C33.6155 23.0211 33.5734 23.0676 33.5443 23.122C33.5152 23.1765 33.5 23.2373 33.5 23.2991V28.7009C33.5 28.7627 33.5152 28.8235 33.5443 28.878C33.5734 28.9324 33.6155 28.9789 33.6669 29.0131L36.8337 31.1244C36.9523 31.2034 37.0909 31.2471 37.2333 31.2503C37.3758 31.2534 37.5162 31.2159 37.6381 31.1422C37.7509 31.0705 37.8434 30.971 37.9068 30.8533C37.9702 30.7356 38.0022 30.6036 38 30.47V21.5C38.0001 21.3337 37.9449 21.172 37.843 21.0405C37.7412 20.909 37.5986 20.815 37.4375 20.7734Z" fill="#7414EE"/>
</g>
<defs>
<clipPath id="clip0_179_1675">
<rect width="24" height="24" fill="white" transform="translate(14 14)"/>
</clipPath>
</defs>
</svg>
